<?xml version="1.0" encoding="utf-8"?>
<!-- Generator: Adobe Illustrator 18.1.1, SVG Export Plug-In . SVG Version: 6.00 Build 0)  -->
<svg version="1.1" xmlns="http://www.w3.org/2000/svg" xmlns:xlink="http://www.w3.org/1999/xlink" x="0px" y="0px"
	 viewBox="0 0 254.4 193.8" enable-background="new 0 0 254.4 193.8" xml:space="preserve">
<g id="Layer_1">
</g>
<g id="Layer_2">
	<g>
		<polyline fill="#E6F2FD" points="59.2,69.1 59.2,63.9 70.7,63.9 70.7,127.2 59.2,127.2 59.2,69.1 		"/>
		<polyline fill="#E6F2FD" points="60.3,64.3 60.3,63.9 195.2,63.9 195.2,68.8 60.3,68.8 60.3,64.3 		"/>
		<rect x="86.4" y="27.1" fill="#E6F2FD" width="7.6" height="32.4"/>
		<rect x="86.4" y="26.1" fill="#E6F2FD" width="82.9" height="5"/>
		<g>
			<rect x="116.5" y="1" fill="#E6F2FD" width="6.5" height="19.6"/>
			<line fill="none" stroke="#28CB75" stroke-width="2" stroke-miterlimit="10" x1="116" y1="8" x2="137.4" y2="8"/>
			
				<rect x="116.5" y="0.8" fill="none" stroke="#1F8CED" stroke-width="1.5" stroke-linecap="round" stroke-linejoin="round" stroke-miterlimit="10" width="21.5" height="21.3"/>
		</g>
		
			<rect x="85.8" y="27.4" fill="none" stroke="#1F8CED" stroke-width="1.5" stroke-linecap="round" stroke-linejoin="round" stroke-miterlimit="10" width="83.6" height="33.8"/>
		
			<rect x="82.7" y="21.7" fill="#FFFFFF" stroke="#28CB75" stroke-width="1.5" stroke-linecap="round" stroke-linejoin="round" stroke-miterlimit="10" width="89.1" height="5.9"/>
		
			<polyline fill="none" stroke="#288FEB" stroke-width="1.5" stroke-linecap="round" stroke-linejoin="round" stroke-miterlimit="10" points="
			59.9,69.1 59.9,63.9 195.3,63.9 195.3,127.2 59.9,127.2 59.9,69.1 		"/>
		
			<rect x="56.9" y="56" fill="#FFFFFF" stroke="#28CB75" stroke-width="1.5" stroke-linecap="round" stroke-linejoin="round" stroke-miterlimit="10" width="141.2" height="8.7"/>
		<g>
			<g>
				<path fill="#FFFFFF" stroke="#1F8CED" stroke-linecap="round" stroke-linejoin="round" stroke-miterlimit="10" d="M118.9,84.4
					V65c0-2.1,1.5-3.9,3.7-4.3c2.8-0.5,6.7-1.1,9.9-1.1c3.4,0,8,0.7,11.2,1.3c2.2,0.4,3.7,2.2,3.9,4.3v19.9"/>
				<line fill="none" stroke="#288FEB" stroke-linecap="round" stroke-miterlimit="10" x1="138.3" y1="69.3" x2="141.2" y2="69.3"/>
				<line fill="none" stroke="#288FEB" stroke-linecap="round" stroke-miterlimit="10" x1="133.5" y1="65.3" x2="133.5" y2="79.3"/>
				
					<polyline fill="#1F8CED" stroke="#1F8CED" stroke-width="1.5" stroke-linecap="round" stroke-linejoin="round" stroke-miterlimit="10" points="
					130,60.4 133.5,65.3 136.9,60.2 				"/>
			</g>
			<g>
				<g>
					<path fill="#FFFFFF" stroke="#1F8CED" stroke-linecap="round" stroke-linejoin="round" stroke-miterlimit="10" d="M140.1,48.7
						c0.9,4.7,0,11.4-6.3,12.5c-5.8,1.1-9.1-5.1-10-9.8L140.1,48.7z"/>
				</g>
				<g>
					<polyline fill="none" stroke="#288FEB" stroke-linecap="round" stroke-miterlimit="10" points="128.7,53.9 132,53.3 
						132.7,56.7 					"/>
					
						<line fill="none" stroke="#288FEB" stroke-linecap="round" stroke-miterlimit="10" x1="134.2" y1="52.9" x2="136.3" y2="52.5"/>
				</g>
				<polyline fill="none" stroke="#1F8CED" stroke-width="1.5" stroke-linecap="round" stroke-miterlimit="10" points="131.8,57.8 
					133.4,56.6 135.3,57.1 				"/>
			</g>
			<g>
				
					<ellipse transform="matrix(0.9832 -0.1826 0.1826 0.9832 -5.7321 24.5641)" fill="#FFFFFF" stroke="#1F8CED" stroke-linecap="round" stroke-linejoin="round" stroke-miterlimit="10" cx="130.5" cy="43.4" rx="10.2" ry="4.4"/>
				
					<rect x="122.9" y="45.9" transform="matrix(0.9832 -0.1826 0.1826 0.9832 -6.5668 24.8)" fill="#FFFFFF" stroke="#28CB75" stroke-linecap="round" stroke-linejoin="round" stroke-miterlimit="10" width="16.9" height="4.2"/>
				
					<line fill="none" stroke="#288FEB" stroke-linecap="round" stroke-linejoin="round" stroke-miterlimit="10" x1="121.9" y1="51.9" x2="142" y2="48.4"/>
			</g>
		</g>
		<path fill="none" stroke="#BCDDFA" stroke-width="1.3089" stroke-linecap="round" stroke-miterlimit="10" d="M148.2,87.7"/>
		<path fill="none" stroke="#BCDDFA" stroke-width="1.3089" stroke-linecap="round" stroke-miterlimit="10" d="M148.2,78.5"/>
		<g>
			<g>
				<path fill="#FFFFFF" stroke="#288FEB" stroke-linecap="round" stroke-linejoin="round" stroke-miterlimit="10" d="M140.4,92.4
					V73c0-2.1,1.5-3.9,3.7-4.3c2.8-0.5,6.7-1.1,9.9-1.1c3.4,0,8,0.7,11.2,1.3c2.2,0.4,3.2,2.4,4,3.9l3.2,5.3l5.7-3.9l3.5,4l-10,8.4
					l-6.1-3.6l0,5.7"/>
				<line fill="none" stroke="#288FEB" stroke-linecap="round" stroke-miterlimit="10" x1="158.7" y1="77.3" x2="161.6" y2="77.3"/>
				<line fill="none" stroke="#288FEB" stroke-linecap="round" stroke-miterlimit="10" x1="154.9" y1="73.3" x2="154.9" y2="87.4"/>
				
					<polyline fill="#1F8CED" stroke="#1F8CED" stroke-width="1.5" stroke-linecap="round" stroke-linejoin="round" stroke-miterlimit="10" points="
					151.5,68.4 155,73.3 158.3,68.2 				"/>
				<g>
					<g>
						<path fill="#FFFFFF" stroke="#1F8CED" stroke-linecap="round" stroke-linejoin="round" stroke-miterlimit="10" d="M163,57.8
							c0,4.9-2,11.3-8.5,11.3c-5.9,0-8.1-7.9-8.1-12.8l1.1-1L163,57.8z"/>
					</g>
					<g>
						<polyline fill="none" stroke="#288FEB" stroke-linecap="round" stroke-miterlimit="10" points="150.8,60.9 154.2,60.9 
							154.2,63.1 						"/>
						
							<line fill="none" stroke="#288FEB" stroke-linecap="round" stroke-miterlimit="10" x1="156.4" y1="60.9" x2="158.5" y2="60.9"/>
					</g>
				</g>
				<polygon fill="#FFFFFF" stroke="#1F8CED" stroke-linecap="round" stroke-linejoin="round" stroke-miterlimit="10" points="
					163.3,58.8 146.4,56.4 146.5,49.8 165.2,52.6 				"/>
				<polyline fill="none" stroke="#288FEB" stroke-linecap="round" stroke-miterlimit="10" points="153.3,65.6 155,66.2 156.6,65.6 
									"/>
				<path fill="#FFFFFF" stroke="#1F8CED" stroke-linecap="round" stroke-linejoin="round" stroke-miterlimit="10" d="M178.3,74.3
					c0,0,1-0.9,2.6-2.2c2.9-2.4,5.9,1.2,3.5,3.3c-2.6,2.4-3.1,2.8-3.1,2.8L178.3,74.3z"/>
				
					<line fill="#FFFFFF" stroke="#1F8CED" stroke-linecap="round" stroke-linejoin="round" stroke-miterlimit="10" x1="178.6" y1="71.2" x2="178.7" y2="75"/>
			</g>
			
				<line fill="#FFFFFF" stroke="#1F8CED" stroke-linecap="round" stroke-linejoin="round" stroke-miterlimit="10" x1="165.5" y1="79.3" x2="165.5" y2="89.6"/>
		</g>
		<g>
			<g>
				<path fill="#FFFFFF" stroke="#1F8CED" stroke-linecap="round" stroke-linejoin="round" stroke-miterlimit="10" d="M94.2,87.9
					V68.5c0-2.1,1.5-3.9,3.7-4.3c2.8-0.5,6.7-1.1,9.9-1.1c3.4,0,8,0.7,11.2,1.3c2.2,0.4,3.7,2.2,3.9,4.3v22.9"/>
				<line fill="none" stroke="#288FEB" stroke-linecap="round" stroke-miterlimit="10" x1="114.1" y1="72.8" x2="117.1" y2="72.8"/>
				<line fill="none" stroke="#288FEB" stroke-linecap="round" stroke-miterlimit="10" x1="108.7" y1="68.8" x2="108.7" y2="82.8"/>
				<path fill="none" stroke="#BCDDFA" stroke-width="1.5" stroke-linecap="round" stroke-miterlimit="10" d="M100.3,80.9"/>
				<path fill="none" stroke="#BCDDFA" stroke-width="1.5" stroke-linecap="round" stroke-miterlimit="10" d="M100.3,71.7"/>
				
					<polyline fill="#1F8CED" stroke="#1F8CED" stroke-width="1.5" stroke-linecap="round" stroke-linejoin="round" stroke-miterlimit="10" points="
					105.3,63.9 108.8,68.8 112.1,63.7 				"/>
			</g>
			<g>
				<g>
					<path fill="#FFFFFF" stroke="#1F8CED" stroke-linecap="round" stroke-linejoin="round" stroke-miterlimit="10" d="M116.8,53.2
						c0,4.9-2,11.3-8.5,11.3c-5.9,0-8.1-6.8-8.1-11.7L116.8,53.2z"/>
				</g>
				<g>
					<polyline fill="none" stroke="#288FEB" stroke-linecap="round" stroke-miterlimit="10" points="104.6,56.4 108,56.4 108,59 
											"/>
					
						<line fill="none" stroke="#288FEB" stroke-linecap="round" stroke-miterlimit="10" x1="110.2" y1="56.4" x2="112.3" y2="56.4"/>
				</g>
			</g>
			<polyline fill="none" stroke="#288FEB" stroke-linecap="round" stroke-miterlimit="10" points="106.8,61.3 108.5,61.9 
				110.1,61.3 			"/>
		</g>
		<g>
			<g>
				<path fill="#FFFFFF" stroke="#1F8CED" stroke-linecap="round" stroke-linejoin="round" stroke-miterlimit="10" d="M105.4,97.5
					V77.6c-0.1-2.1-1.7-3.9-3.9-4.3c-3.2-0.6-7.8-1.3-11.2-1.3c-3.2,0-7.1,0.6-9.9,1.1c-2.1,0.4-3.7,2.5-5.1,4.6L70,85.6
					c-0.8,1.2-0.8,2.7-0.2,3.9l5,9.2"/>
				<line fill="none" stroke="#288FEB" stroke-linecap="round" stroke-miterlimit="10" x1="90.8" y1="77.7" x2="90.8" y2="91.8"/>
			</g>
			
				<polyline fill="#1F8CED" stroke="#1F8CED" stroke-width="1.5" stroke-linecap="round" stroke-linejoin="round" stroke-miterlimit="10" points="
				87.3,72.8 90.8,77.7 94.1,72.6 			"/>
			<g>
				<g>
					<path fill="#FFFFFF" stroke="#1F8CED" stroke-linecap="round" stroke-linejoin="round" stroke-miterlimit="10" d="M99,62.2
						c0,4.9-2,11.3-8.5,11.3c-5.9,0-8.1-6.8-8.1-11.7L99,62.2z"/>
				</g>
				<g>
					<polyline fill="none" stroke="#288FEB" stroke-linecap="round" stroke-miterlimit="10" points="86.8,65.3 90.2,65.3 90.2,67.7 
											"/>
					<line fill="none" stroke="#288FEB" stroke-linecap="round" stroke-miterlimit="10" x1="92.4" y1="65.3" x2="94.5" y2="65.3"/>
				</g>
			</g>
			<polyline fill="none" stroke="#288FEB" stroke-linecap="round" stroke-miterlimit="10" points="89.1,70 90.8,70.6 92.4,70 			"/>
			<polyline fill="#FFFFFF" stroke="#1F8CED" stroke-linecap="round" stroke-linejoin="round" stroke-miterlimit="10" points="
				80,83.7 76.9,87.6 80.6,95.1 			"/>
		</g>
		<g>
			<g>
				<path fill="#FFFFFF" d="M127.6,75.5c0,0-4.1-0.2-7.6,0.3c-1.2,0.2-9.6,1.4-19.5,7.6c-4,2.5-52.2,31-52.2,31s-1.7,5.4,0,17
					c4.6,32.2,37.9,41.7,55.5,46.1c18.5,4.6,23.7,15.2,23.7,15.2V75.5z"/>
				<path fill="#FFFFFF" d="M127.6,75.5c0,0,5.2,0.2,7.6,0.4c1.6,0.2,9.6,1.2,19.5,7.4c4,2.5,52.2,31,52.2,31s1.7,5.4,0,17
					c-4.6,32.2-37.9,41.7-55.5,46.1c-18.5,4.6-23.7,15.2-23.7,15.2V75.5z"/>
			</g>
			<path fill="#E6F2FD" d="M60.9,108c-5.1,3-12.1,7.2-12.1,7.2s-1.6,5.2,0,16.4c4.4,30.9,36.5,40.1,53.4,44.4
				c17.8,4.5,22.8,14.6,22.8,14.6s-1.2-9.1-9.2-14.8C94.2,160.2,60.7,155.2,60.9,108z"/>
			<g>
				
					<circle fill="none" stroke="#1F8CED" stroke-linecap="round" stroke-linejoin="round" stroke-miterlimit="10" cx="101.9" cy="117.2" r="11.2"/>
				
					<circle fill="none" stroke="#1F8CED" stroke-linecap="round" stroke-linejoin="round" stroke-miterlimit="10" cx="153.1" cy="117.2" r="11.2"/>
			</g>
			
				<line fill="none" stroke="#BCDDFA" stroke-width="1.3089" stroke-linecap="round" stroke-miterlimit="10" x1="160.6" y1="118" x2="154.6" y2="124"/>
			
				<line fill="none" stroke="#BCDDFA" stroke-width="1.3089" stroke-linecap="round" stroke-miterlimit="10" x1="159.7" y1="114.1" x2="150.6" y2="122.6"/>
			
				<line fill="none" stroke="#BCDDFA" stroke-width="1.3089" stroke-linecap="round" stroke-miterlimit="10" x1="109" y1="118.8" x2="103.1" y2="124.8"/>
			
				<line fill="none" stroke="#BCDDFA" stroke-width="1.3089" stroke-linecap="round" stroke-miterlimit="10" x1="108.1" y1="114.9" x2="99.1" y2="123.4"/>
			<path fill="none" stroke="#28CB75" stroke-width="2" stroke-linejoin="round" stroke-miterlimit="10" d="M129.2,88.3
				c0,0-5.8-0.2-9.2,0.3c-1.2,0.2-9.6,1.4-19.5,7.6c-4,2.5-52.2,31-52.2,31"/>
			<path fill="none" stroke="#28CB75" stroke-width="2" stroke-linejoin="round" stroke-miterlimit="10" d="M127.7,88.3
				c0,0,4.1-0.2,7.6,0.3c1.2,0.2,9.6,1.4,19.5,7.6c4,2.5,52.2,31,52.2,31"/>
			<g>
				<path fill="none" stroke="#1F8CED" stroke-width="2" stroke-linejoin="round" stroke-miterlimit="10" d="M127.6,75.5
					c0,0,5.2,0.2,7.6,0.4c1.6,0.2,9.6,1.2,19.5,7.4c4,2.5,52.2,31,52.2,31s1.7,5.4,0,17c-4.6,32.2-37.9,41.7-55.5,46.1
					c-18.5,4.6-23.7,15.2-23.7,15.2"/>
				<path fill="none" stroke="#1F8CED" stroke-width="2" stroke-linejoin="round" stroke-miterlimit="10" d="M127.6,75.5
					c0,0-4.1-0.2-7.6,0.3c-1.2,0.2-9.6,1.4-19.5,7.6c-4,2.5-52.2,31-52.2,31s-1.7,5.4,0,17c4.6,32.2,37.9,41.7,55.5,46.1
					c18.5,4.6,23.7,15.2,23.7,15.2"/>
				
					<line fill="none" stroke="#1F8CED" stroke-linejoin="round" stroke-miterlimit="10" x1="127.6" y1="192.6" x2="127.6" y2="75.5"/>
			</g>
			<g>
				<path fill="#FFFFFF" d="M254.4,157.8c0,0-8.9,7.9-18.5,7.9c-9.5,0-17.9-7.9-17.9-7.9s-8.9,7.9-18.5,7.9
					c-9.5,0-17.9-7.9-17.9-7.9s-8.9,7.9-18.5,7.9s-17.9-7.9-17.9-7.9s-8.9,7.9-18.5,7.9s-17.9-7.9-17.9-7.9s-8.9,7.9-18.5,7.9
					s-17.9-7.9-17.9-7.9s-8.9,7.9-18.5,7.9s-17.9-7.9-17.9-7.9s-8.9,7.9-18.5,7.9S0,157.8,0,157.8v36h254.4L254.4,157.8z"/>
				<path fill="none" stroke="#288FEB" stroke-width="2" stroke-linejoin="round" stroke-miterlimit="10" d="M17.9,165.5
					c9.5,0,18.5-7.9,18.5-7.9s8.4,7.9,17.9,7.9s18.5-7.9,18.5-7.9s8.4,7.9,17.9,7.9s18.5-7.9,18.5-7.9s8.4,7.9,17.9,7.9
					s18.5-7.9,18.5-7.9s8.4,7.9,17.9,7.9c9.5,0,18.5-7.9,18.5-7.9s8.4,7.9,17.9,7.9c9.5,0,18.5-7.9,18.5-7.9s8.4,7.9,17.9,7.9"/>
			</g>
		</g>
		<path fill="#FFFFFF" stroke="#28CB75" stroke-linecap="round" stroke-linejoin="round" stroke-miterlimit="10" d="M100.3,47.8
			c0,0,4-6.8,8.5-6.7c4.5,0.1,8.6,7,8.6,7"/>
		
			<rect x="98.8" y="48.7" transform="matrix(0.9999 1.499151e-02 -1.499151e-02 0.9999 0.7782 -1.6224)" fill="#FFFFFF" stroke="#28CB75" stroke-linecap="round" stroke-linejoin="round" stroke-miterlimit="10" width="19.6" height="4.8"/>
		<polygon fill="#FFFFFF" stroke="#1F8CED" stroke-linecap="round" stroke-linejoin="round" stroke-miterlimit="10" points="
			99.7,61.6 81.4,61.6 80.4,54.5 100.7,54.5 		"/>
	</g>
</g>
<g id="Layer_3">
</g>
</svg>
